# xmcd
#
# Track frame offsets:
#	150
#	13107
#	28918
#	45958
#	59253
#	73838
#
# Disc length: 1213 seconds
# Revision: 0
# Processed by: cddbd v1.5.2PL0 Copyright (c) Steve Scherf et al.
# Submitted via: dBpowerAMP V12.0
#
DISCID=4c04bb06
DTITLE=Megan Ellis - Me And Patsy Cline
DYEAR=2010
DGENRE=Country
TTITLE0=Walk
TTITLE1=Me And Patsy Cline
TTITLE2=Henry
TTITLE3=Girls With Tattoos
TTITLE4=That's Romance
TTITLE5=Runaway
EXTD=
EXTT0=
EXTT1=
EXTT2=
EXTT3=
EXTT4=
EXTT5=
PLAYORDER=
